<svg width="9" height="11" viewBox="0 0 9 11" fill="none" xmlns="http://www.w3.org/2000/svg">
<path d="M7.85709 4.24286C7.57276 3.85411 7.24582 3.49841 6.88235 3.1824L6.87459 3.17581C6.85187 3.15033 6.82108 3.13346 6.78738 3.12802C6.75369 3.12258 6.71915 3.12891 6.68957 3.14594L6.69035 3.14555C6.66439 3.15858 6.64359 3.18 6.63134 3.20633C6.61909 3.23267 6.6161 3.26237 6.62286 3.29062V3.28985L6.61743 3.28636C6.81098 3.64282 6.92618 4.06677 6.92928 4.5171V4.51787C6.93238 4.79327 6.91493 4.98604 6.91454 4.98953C6.90832 5.02714 6.90082 5.06453 6.89204 5.10163C6.86916 5.21373 6.71633 5.5442 6.4999 5.45344C6.28346 5.36267 6.27027 5.01552 6.27027 5.01552H6.26717C6.19433 3.61303 5.57166 2.29576 4.53413 1.34929L4.52986 1.34541L4.52792 1.34347L4.52598 1.34153C4.32898 1.16731 4.11585 1.01224 3.88947 0.878402L3.87008 0.867929C3.85067 0.858548 3.83188 0.847924 3.81384 0.836123L3.81616 0.837287C3.78857 0.819882 3.7595 0.804955 3.72928 0.792681L3.72501 0.791129C3.70562 0.781044 3.68545 0.773287 3.6645 0.763978C3.64404 0.753992 3.62171 0.748396 3.59896 0.747549C3.5762 0.746703 3.55352 0.750624 3.53238 0.759062C3.51123 0.7675 3.49208 0.780267 3.47615 0.796544C3.46023 0.812821 3.44789 0.832248 3.43992 0.853578L3.43953 0.854741C3.42827 1.00866 3.45435 1.16301 3.51556 1.30468L3.51323 1.29847C3.76884 1.94429 3.9174 2.69212 3.9174 3.47486C3.9174 3.94109 3.86465 4.39491 3.76535 4.83089L3.77311 4.79016C3.74957 4.88267 3.70407 4.96813 3.64046 5.0393C3.57685 5.11047 3.49702 5.16525 3.40773 5.19899L3.40385 5.20015C3.29473 5.21046 3.1853 5.18415 3.0928 5.12536C3.0003 5.06657 2.93001 4.97866 2.89301 4.8755L2.89185 4.872C2.88176 4.84408 2.86935 4.81809 2.86159 4.78783V4.7824C2.67463 4.11603 2.90387 3.11802 3.06407 2.5618C3.17151 2.15026 2.66649 2.5618 2.66649 2.5618H2.66455C2.56525 2.64558 2.4582 2.74022 2.34571 2.84495V2.84107C2.20336 2.9714 2.01524 3.15215 1.82169 3.35889C1.71696 3.47099 0.320985 5.00699 0.756185 7.10502C1.18789 8.81402 2.71187 10.0587 4.52637 10.0587C6.49718 10.0587 8.12511 8.59021 8.37568 6.68805L8.37762 6.66827C8.38693 6.59108 8.39546 6.51428 8.39934 6.43787C8.40128 6.41382 8.40167 6.38861 8.40283 6.3634C8.42337 5.61231 8.23108 4.87073 7.84817 4.22425L7.85825 4.24286H7.85709Z" fill="#FF1500"/>
</svg>
