<svg width="26" height="26" viewBox="0 0 26 26" fill="none" xmlns="http://www.w3.org/2000/svg">
<path d="M5.13994 19.484H20.8601M5.13994 15.4865C3.81153 15.2084 2.64586 14.4381 1.88881 13.3382C1.13176 12.2383 0.842538 10.8947 1.08215 9.59086C1.32176 8.28702 2.07146 7.12489 3.17312 6.34962C4.27478 5.57435 5.64224 5.24655 6.98705 5.43537C7.318 4.70311 7.78426 4.03642 8.36256 3.46857C8.97101 2.87389 9.69381 2.40208 10.4896 2.08016C11.2853 1.75824 12.1384 1.59253 13 1.59253C13.8616 1.59253 14.7147 1.75824 15.5104 2.08016C16.3062 2.40208 17.029 2.87389 17.6374 3.46857C18.2157 4.03642 18.682 4.70311 19.013 5.43537C20.3578 5.24655 21.7252 5.57435 22.8269 6.34962C23.9285 7.12489 24.6782 8.28702 24.9179 9.59086C25.1575 10.8947 24.8682 12.2383 24.1112 13.3382C23.3541 14.4381 22.1885 15.2084 20.8601 15.4865V24.5925H5.13994V15.4865Z" stroke="#716F6F" stroke-width="2" stroke-linecap="round" stroke-linejoin="round"/>
</svg>
