<svg width="9" height="9" viewBox="0 0 9 9" fill="none" xmlns="http://www.w3.org/2000/svg">
<path d="M4.73142 0.334595C2.48233 0.334595 0.658691 2.15823 0.658691 4.40732C0.658691 6.65642 2.48233 8.48005 4.73142 8.48005C6.98051 8.48005 8.80415 6.65642 8.80415 4.40732C8.80415 2.15823 6.98051 0.334595 4.73142 0.334595ZM6.33597 5.65914L6.07597 6.01369C6.07031 6.02141 6.06319 6.02794 6.055 6.03289C6.04682 6.03785 6.03773 6.04114 6.02827 6.04258C6.01881 6.04402 6.00916 6.04357 5.99987 6.04126C5.99058 6.03896 5.98184 6.03484 5.97415 6.02914L4.47051 4.93278C4.46114 4.92605 4.45353 4.91717 4.44831 4.90689C4.44309 4.89661 4.44041 4.88522 4.44051 4.87369V2.37096C4.44051 2.33096 4.47324 2.29823 4.51324 2.29823H4.95051C4.99051 2.29823 5.02324 2.33096 5.02324 2.37096V4.62096L6.3196 5.55823C6.35233 5.58096 6.3596 5.62642 6.33597 5.65914Z" fill="black"/>
</svg>
